<svg width="256" height="256" viewBox="0 0 256 256" fill="none" xmlns="http://www.w3.org/2000/svg">
<path d="M154.848 74.5741C153.171 74.5743 151.564 75.2403 150.378 76.4256C149.193 77.611 148.527 79.2187 148.527 80.8951V87.2186C148.527 88.895 149.193 90.5027 150.378 91.6881C151.564 92.8734 153.171 93.5394 154.848 93.5396C156.524 93.5394 158.132 92.8734 159.317 91.6881C160.503 90.5027 161.169 88.895 161.169 87.2186V80.8951C161.169 79.2187 160.503 77.611 159.317 76.4256C158.132 75.2403 156.524 74.5743 154.848 74.5741Z" fill="white"/>
<path d="M129.561 74.5741C127.885 74.5743 126.277 75.2403 125.092 76.4256C123.907 77.611 123.241 79.2187 123.24 80.8951V87.2186C123.241 88.895 123.907 90.5027 125.092 91.6881C126.277 92.8734 127.885 93.5394 129.561 93.5396C131.238 93.5394 132.846 92.8734 134.031 91.6881C135.216 90.5027 135.882 88.895 135.882 87.2186V80.8951C135.882 79.2187 135.216 77.611 134.031 76.4256C132.846 75.2403 131.238 74.5743 129.561 74.5741Z" fill="white"/>
<path d="M135.82 24.001C111.457 24.001 91.5675 43.8864 91.5675 68.2512L91.57 144.111C91.5705 161.641 77.4924 175.719 59.9618 175.719C42.4288 175.719 28.2983 161.636 28.3512 144.128L28.4225 118.842C28.4421 111.763 34.0066 106.18 41.0644 106.18C48.1224 106.18 53.709 111.766 53.709 118.824C53.7091 120.501 54.3752 122.108 55.5606 123.294C56.7459 124.479 58.3536 125.145 60.03 125.145C61.7064 125.145 63.314 124.479 64.4994 123.294C65.6848 122.108 66.3508 120.501 66.351 118.824C66.351 104.934 54.9548 93.5377 41.0644 93.5377C27.1745 93.5377 15.8157 104.938 15.7779 118.807L15.7091 144.091C15.6353 168.478 35.5958 188.36 59.9617 188.36C84.3252 188.36 104.212 168.472 104.212 144.107V68.2499C104.211 50.7193 118.289 36.6417 135.82 36.6417C153.353 36.6417 167.413 50.7168 167.428 68.2549L167.497 150.436C167.498 151.266 167.662 152.088 167.98 152.855C168.299 153.622 168.765 154.318 169.353 154.905C169.941 155.492 170.638 155.957 171.405 156.273C172.173 156.59 172.995 156.753 173.825 156.752C175.502 156.751 177.109 156.083 178.293 154.897C179.478 153.711 180.143 152.103 180.142 150.426L180.073 68.2451C180.052 43.888 160.186 24.001 135.82 24.001ZM230.714 74.5715C216.824 74.5715 205.43 85.9677 205.43 99.858L205.359 150.421C205.335 167.963 191.282 182.038 173.75 182.038C156.217 182.038 142.144 167.962 142.142 150.43V144.106C142.142 142.43 141.476 140.821 140.291 139.636C139.105 138.45 137.497 137.784 135.82 137.784C134.143 137.784 132.535 138.45 131.35 139.636C130.164 140.821 129.498 142.43 129.498 144.106C129.498 182.586 98.4399 213.645 59.9611 213.645C40.7217 213.645 23.3825 205.868 10.7922 193.278C10.2051 192.691 9.50822 192.225 8.74121 191.907C7.97421 191.59 7.15215 191.426 6.32194 191.426C5.49174 191.426 4.66967 191.59 3.90267 191.907C3.13566 192.225 2.43876 192.691 1.85173 193.278C1.26467 193.865 0.798964 194.562 0.481245 195.329C0.163526 196.096 0 196.918 0 197.748C0 198.578 0.163526 199.4 0.481245 200.167C0.798964 200.934 1.26467 201.631 1.85173 202.218C16.7164 217.083 37.3058 226.287 59.9616 226.287C94.7306 226.287 124.457 204.544 136.441 173.97C144.299 186.362 158.049 194.679 173.75 194.679C173.75 194.679 173.751 194.679 173.752 194.679C198.116 194.678 217.97 174.791 218.002 150.436L218.071 99.8657C218.071 99.8624 218.071 99.859 218.071 99.8557C218.071 92.7977 223.655 87.2137 230.713 87.2137C231.544 87.2139 232.366 87.0505 233.133 86.7328C233.901 86.4151 234.598 85.9493 235.185 85.3621C235.772 84.7748 236.238 84.0776 236.556 83.3103C236.874 82.543 237.037 81.7206 237.037 80.8901C237.037 80.0598 236.873 79.2377 236.555 78.4707C236.237 77.7037 235.771 77.0068 235.184 76.4198C234.597 75.8328 233.9 75.3673 233.133 75.0497C232.366 74.7322 231.543 74.5689 230.713 74.5691L230.714 74.5715ZM249.691 112.5C248.015 112.497 246.406 113.16 245.218 114.343C244.031 115.526 243.361 117.132 243.358 118.809L243.287 150.417C243.202 188.913 212.229 219.967 173.75 219.967C164.13 219.967 154.999 218.021 146.685 214.505C145.141 213.852 143.401 213.839 141.848 214.469C140.294 215.099 139.055 216.321 138.402 217.865C138.078 218.629 137.908 219.45 137.902 220.281C137.896 221.111 138.053 221.934 138.365 222.704C138.677 223.473 139.138 224.174 139.72 224.765C140.303 225.357 140.997 225.827 141.761 226.151C151.598 230.311 162.423 232.612 173.75 232.612C219.062 232.612 255.83 195.739 255.931 150.444L256 118.835C256.002 118.005 255.84 117.183 255.524 116.415C255.208 115.647 254.744 114.949 254.158 114.361C253.572 113.772 252.876 113.305 252.11 112.986C251.343 112.667 250.522 112.502 249.691 112.5Z" fill="white"/>
</svg>
